<?xml version="1.0" encoding="utf-8"?>
<!-- Generator: Adobe Illustrator 23.1.0, SVG Export Plug-In . SVG Version: 6.00 Build 0)  -->
<svg version="1.1" id="Слой_1" xmlns="http://www.w3.org/2000/svg" xmlns:xlink="http://www.w3.org/1999/xlink" x="0px" y="0px"
	 viewBox="0 0 138.6 31.5" style="enable-background:new 0 0 138.6 31.5;" xml:space="preserve">
<style type="text/css">
	.st0{fill:#1A1A1A;}
	.st1{fill:#ED7867;}
	.st2{fill:#999999;}
</style>
<g>
	<g>
		<g>
			<path class="st0" d="M42.5,17.2c-0.1,1.3-0.6,2.3-1.4,3c-0.9,0.7-2,1.1-3.5,1.1c-1.7,0-3-0.5-3.8-1.5c-0.9-1-1.3-2.4-1.3-4.3
				c0-1.9,0.4-3.4,1.3-4.4c0.9-1,2.3-1.5,4-1.5c1.4,0,2.6,0.4,3.4,1.1c0.8,0.7,1.3,1.7,1.3,2.9h-1.4c-0.5,0-0.9-0.2-1.1-0.7
				c-0.2-0.3-0.3-0.5-0.6-0.7c-0.4-0.3-1-0.5-1.7-0.5c-1,0-1.8,0.3-2.3,1c-0.5,0.6-0.8,1.6-0.8,2.8c0,1.2,0.3,2.1,0.8,2.8
				c0.5,0.7,1.2,1,2.2,1c0.7,0,1.3-0.2,1.7-0.5c0.4-0.3,0.7-0.8,0.9-1.5L42.5,17.2L42.5,17.2z"/>
			<path class="st0" d="M44.9,20.3c-0.4-0.4-0.8-0.9-1-1.6c-0.2-0.7-0.3-1.3-0.3-2c0-0.6,0.1-1.2,0.2-1.7c0.2-0.6,0.4-1.1,0.8-1.5
				c0.6-0.6,1.3-1,2.2-1.1c0.9-0.1,1.7,0,2.4,0.2c0.8,0.3,1.4,0.9,1.8,1.7c0.4,0.7,0.6,1.5,0.6,2.5c0,0.7-0.1,1.3-0.2,1.8
				c-0.2,0.5-0.3,0.9-0.6,1.3c-0.5,0.7-1.2,1.2-2,1.3c-0.7,0.2-1.4,0.2-2.1,0C45.9,20.9,45.3,20.7,44.9,20.3z M46.4,14.6
				c-0.4,0.5-0.7,1.2-0.6,2.2c0,1,0.2,1.7,0.6,2c0.1,0.2,0.3,0.3,0.7,0.4c0.3,0.1,0.7,0.1,1,0c0.3-0.1,0.6-0.3,0.9-0.7
				s0.4-1,0.4-1.9c0-0.8-0.1-1.3-0.4-1.7s-0.5-0.6-0.8-0.7s-0.6-0.1-1,0C46.8,14.3,46.6,14.4,46.4,14.6z"/>
			<path class="st0" d="M60.2,21H58v-5v-0.4c0-0.5-0.2-0.9-0.5-1.1s-0.7-0.4-1.1-0.4s-0.7,0.1-1,0.4C55.1,14.7,55,15,55,15.6V21
				h-2.3v-5c0-1.5,0.4-2.4,1.1-2.9s1.6-0.8,2.5-0.8c0.5,0,1,0,1.4,0.2c0.5,0.1,0.9,0.3,1.3,0.6c0.3-0.3,0.7-0.5,1.1-0.6
				s0.9-0.2,1.4-0.2c0.9,0,1.8,0.3,2.6,0.7c0.8,0.5,1.2,1.5,1.2,3v5h-1.1c-0.3,0-0.6-0.1-0.8-0.3c-0.2-0.2-0.3-0.5-0.3-0.8v-4.4
				c0-0.5-0.2-0.9-0.5-1.1s-0.7-0.4-1.1-0.4s-0.7,0.1-1.1,0.4c-0.3,0.2-0.5,0.6-0.5,1.1V16L60.2,21L60.2,21z"/>
			<path class="st0" d="M74.4,21h-2.2v-5v-0.4c0-0.5-0.2-0.9-0.5-1.1s-0.7-0.4-1.1-0.4s-0.7,0.1-1,0.4c-0.3,0.2-0.4,0.6-0.4,1.1V21
				h-2.3v-5c0-1.5,0.4-2.4,1.1-2.9c0.8-0.5,1.6-0.8,2.5-0.8c0.5,0,1,0,1.4,0.2c0.5,0.1,0.9,0.3,1.3,0.6c0.3-0.3,0.7-0.5,1.1-0.6
				c0.4-0.1,0.9-0.2,1.4-0.2c0.9,0,1.8,0.3,2.6,0.7c0.8,0.5,1.2,1.5,1.2,3v5h-1.1c-0.3,0-0.6-0.1-0.8-0.3c-0.2-0.2-0.3-0.5-0.3-0.8
				v-4.4c0-0.5-0.2-0.9-0.5-1.1s-0.7-0.4-1.1-0.4s-0.7,0.1-1.1,0.4c-0.3,0.2-0.5,0.6-0.5,1.1V16L74.4,21L74.4,21z"/>
			<path class="st0" d="M87,18.4h1.6c-0.2,0.9-0.7,1.6-1.3,2.1c-0.7,0.5-1.5,0.7-2.5,0.7c-1.2,0-2.2-0.4-2.9-1.2
				c-0.7-0.8-1-1.9-1-3.3c0-1.4,0.3-2.5,1-3.2c0.7-0.8,1.6-1.2,2.9-1.2c1.3,0,2.3,0.4,3,1.2c0.7,0.8,1,1.9,1,3.3c0,0.1,0,0.2,0,0.2
				c0,0.1,0,0.1,0,0.1c0,0.1,0,0.2,0,0.2h-5.6c0,0.7,0.2,1.2,0.5,1.5c0.3,0.3,0.7,0.5,1.3,0.5c0.4,0,0.7-0.1,0.9-0.2
				c0.1,0,0.1-0.1,0.2-0.1c0.1,0,0.1-0.1,0.2-0.2c0-0.1,0.1-0.2,0.2-0.3C86.6,18.4,86.8,18.4,87,18.4z M83.1,15.9h3.3
				c0-0.6-0.2-1-0.4-1.3c-0.3-0.3-0.7-0.5-1.2-0.5c-0.5,0-0.9,0.1-1.2,0.5C83.3,14.9,83.2,15.3,83.1,15.9z"/>
			<path class="st0" d="M89.9,21v-4.2c0-0.8,0.1-1.5,0.4-2.1c0.3-0.6,0.6-1,1-1.4c0.4-0.3,0.9-0.6,1.4-0.7c0.6-0.1,1.1-0.2,1.7-0.2
				c0,0,0.1,0,0.2,0c0.1,0,0.1,0,0.2,0v2.3H94c-0.6,0-1.1,0.1-1.4,0.5c-0.3,0.3-0.4,0.8-0.4,1.4V21C92.2,21,89.9,21,89.9,21z"/>
			<path class="st0" d="M101.8,18.4h1.6c-0.2,0.9-0.7,1.6-1.4,2.1c-0.7,0.5-1.5,0.7-2.5,0.7c-1.2,0-2.2-0.4-2.9-1.2
				c-0.7-0.8-1-1.9-1-3.3c0-1.4,0.3-2.5,1-3.2c0.7-0.8,1.6-1.2,2.9-1.2c1.3,0,2.3,0.4,3,1.2c0.4,0.5,0.7,1,0.8,1.6h-2.3
				c-0.1-0.2-0.2-0.4-0.3-0.5c-0.3-0.3-0.7-0.5-1.2-0.5c-0.5,0-0.9,0.1-1.2,0.5c-0.4,0.4-0.6,1.1-0.6,2.1c0,1,0.2,1.7,0.6,2.1
				c0.3,0.3,0.7,0.5,1.3,0.5c0.4,0,0.7-0.1,0.9-0.2c0.1,0,0.1-0.1,0.2-0.1c0.1,0,0.1-0.1,0.2-0.2c0-0.1,0.1-0.1,0.3-0.3
				C101.3,18.4,101.5,18.4,101.8,18.4z"/>
			<path class="st0" d="M110.5,18.4h1.6c-0.2,0.9-0.7,1.6-1.4,2.1c-0.7,0.5-1.5,0.7-2.5,0.7c-1.2,0-2.2-0.4-2.9-1.2
				c-0.7-0.8-1-1.9-1-3.3c0-1.4,0.3-2.5,1-3.2c0.7-0.8,1.6-1.2,2.9-1.2c1.3,0,2.3,0.4,3,1.2c0.7,0.8,1,1.9,1,3.3c0,0.1,0,0.2,0,0.2
				c0,0.1,0,0.1,0,0.1c0,0.1,0,0.2,0,0.2h-5.6c0,0.7,0.2,1.2,0.5,1.5c0.3,0.3,0.7,0.5,1.3,0.5c0.4,0,0.7-0.1,0.9-0.2
				c0.1,0,0.1-0.1,0.2-0.1c0.1,0,0.1-0.1,0.2-0.2c0-0.1,0.1-0.2,0.2-0.3C110.1,18.4,110.3,18.4,110.5,18.4z M106.7,15.9h3.3
				c0-0.6-0.2-1-0.4-1.3c-0.3-0.3-0.7-0.5-1.2-0.5c-0.5,0-0.9,0.1-1.2,0.5C106.8,14.9,106.7,15.3,106.7,15.9z"/>
			<g>
				<g>
					<path class="st1" d="M113.5,21v-9.9c0-0.3,0.1-0.6,0.3-0.8c0.2-0.2,0.5-0.3,0.8-0.3h1.1v9h5.4V21H113.5z"/>
				</g>
			</g>
			<g>
				<g>
					<path class="st1" d="M127.8,20.7c-0.4,0.2-0.9,0.4-1.4,0.4c-0.5,0-0.9,0.1-1.3,0.1c-0.8,0-1.4-0.2-2-0.6
						c-0.6-0.4-0.9-1.1-0.9-2.1c0-0.9,0.3-1.5,0.8-1.9c0.5-0.4,1.2-0.6,2-0.8c0.1,0,0.2,0,0.4,0c0.1,0,0.3-0.1,0.5-0.1
						c0.9-0.1,1.4-0.4,1.4-0.8c0-0.3-0.2-0.5-0.5-0.6c-0.3-0.1-0.6-0.1-0.9-0.1c-0.3,0-0.6,0-0.8,0.1c-0.2,0.1-0.4,0.3-0.5,0.5h-2.2
						c0.1-0.7,0.4-1.2,0.9-1.6c0.6-0.5,1.4-0.7,2.5-0.7c1.2,0,2.1,0.2,2.7,0.6c0.6,0.4,0.9,1,0.9,1.8v2.9c0,0.9-0.2,1.5-0.5,2
						C128.6,20.1,128.3,20.5,127.8,20.7z M127.3,16.7c-0.3,0.2-0.7,0.3-1.3,0.4l-0.7,0.2c-0.4,0.1-0.7,0.3-0.8,0.4
						c-0.1,0.2-0.2,0.5-0.2,0.7c0,0.3,0.1,0.6,0.3,0.8c0.2,0.2,0.5,0.3,0.8,0.3c0.6,0,1.1-0.2,1.4-0.5c0.3-0.3,0.5-0.8,0.5-1.4V16.7
						z"/>
				</g>
			</g>
			<g>
				<g>
					<path class="st1" d="M132.8,11v2.6c0.2-0.4,0.6-0.7,1-1c0.4-0.2,0.9-0.3,1.4-0.3c1,0,1.8,0.4,2.5,1.3s1,1.9,1,3.3
						c0,1.3-0.3,2.4-1,3.3c-0.3,0.4-0.8,0.7-1.3,0.9s-1.1,0.3-1.6,0.3c-1,0-2-0.3-2.9-0.8c-0.9-0.5-1.3-1.6-1.3-3.1V9.9h1.1
						c0.3,0,0.6,0.1,0.8,0.3C132.6,10.4,132.8,10.7,132.8,11z M136.4,16.7c0-0.8-0.2-1.4-0.5-1.8c-0.3-0.5-0.8-0.7-1.3-0.7
						c-0.6,0-1.1,0.2-1.4,0.6c-0.3,0.5-0.5,1.1-0.5,1.8c0,0.9,0.1,1.6,0.4,2c0.3,0.5,0.8,0.7,1.4,0.7c0.6,0,1.1-0.2,1.4-0.7
						C136.3,18.2,136.4,17.5,136.4,16.7z"/>
				</g>
			</g>
		</g>
	</g>
	<path class="st0" d="M24.1,22.4L14.3,28c-0.2,0.1-0.4,0.1-0.6,0.1v3.3c0.2,0,0.4,0,0.5-0.1L27,24c0.1-0.1,0.2-0.2,0.3-0.3L24.5,22
		C24.4,22.2,24.3,22.3,24.1,22.4z"/>
	<path class="st2" d="M13.8,3.1l10.4,6c0.2,0.1,0.3,0.3,0.5,0.5L27.5,8c-0.1-0.2-0.3-0.4-0.5-0.5L14.3,0.1C14.2,0,14,0,13.8,0
		L13.8,3.1L13.8,3.1z"/>
	<path class="st2" d="M27.6,8.4c0-0.1,0-0.3-0.1-0.4l-2.9,1.7c0.1,0.1,0.1,0.3,0.1,0.4v11.3c0,0.2-0.1,0.4-0.2,0.6l2.9,1.7
		c0.1-0.2,0.2-0.4,0.2-0.6L27.6,8.4L27.6,8.4z"/>
	<path class="st0" d="M13.2,28l-9.8-5.7c-0.1-0.1-0.2-0.2-0.3-0.3l-2.9,1.7C0.3,23.8,0.4,24,0.5,24l12.7,7.3
		c0.2,0.1,0.3,0.1,0.5,0.1v-3.3C13.6,28.2,13.4,28.1,13.2,28z"/>
	<path class="st2" d="M3.4,9.1l10.4-6V0c-0.2,0-0.4,0-0.5,0.1L0.6,7.5C0.4,7.6,0.2,7.8,0.1,8L3,9.6C3.1,9.4,3.2,9.2,3.4,9.1z"/>
	<path class="st2" d="M2.9,21.4V10.1c0-0.1,0-0.3,0.1-0.4L0.1,8C0,8.1,0,8.3,0,8.4v14.6c0,0.2,0.1,0.4,0.2,0.6L3.1,22
		C3,21.8,2.9,21.6,2.9,21.4z"/>
	<path class="st1" d="M18.8,19.3l-4.5,2.6C14.2,22,14,22,13.8,22v2.2c0.2,0,0.4,0,0.5-0.1l6.4-3.7c0.1-0.1,0.2-0.2,0.3-0.3L19.2,19
		C19.1,19.1,19,19.2,18.8,19.3z"/>
	<path class="st1" d="M6.8,11.1c-0.2,0.1-0.3,0.3-0.5,0.5l1.9,1.1c0.1-0.2,0.3-0.4,0.5-0.5l5-2.9v-2c-0.2,0-0.4,0-0.5,0.1L6.8,11.1z
		"/>
	<path class="st1" d="M13.8,9.3l5,2.9c0.2,0.1,0.3,0.3,0.5,0.5l1.9-1.1c-0.1-0.2-0.3-0.4-0.5-0.5l-6.4-3.7c-0.2-0.1-0.3-0.1-0.5-0.1
		V9.3L13.8,9.3z"/>
	<path class="st1" d="M8.2,18.3v-5.2c0-0.1,0-0.3,0.1-0.4l-1.9-1.1c-0.1,0.1-0.1,0.3-0.1,0.4v7.4c0,0.2,0.1,0.4,0.2,0.6L8.4,19
		C8.3,18.8,8.2,18.5,8.2,18.3z"/>
	<path class="st1" d="M13.2,21.9l-4.5-2.6c-0.1-0.1-0.2-0.2-0.3-0.3l-1.9,1.1c0.1,0.1,0.2,0.3,0.3,0.3l6.4,3.7
		c0.2,0.1,0.3,0.1,0.5,0.1V22C13.6,22,13.4,22,13.2,21.9z"/>
</g>
</svg>
