<?xml version="1.0" encoding="utf-8"?>
<!-- Generator: Adobe Illustrator 16.0.0, SVG Export Plug-In . SVG Version: 6.00 Build 0)  -->
<!DOCTYPE svg PUBLIC "-//W3C//DTD SVG 1.1//EN" "http://www.w3.org/Graphics/SVG/1.1/DTD/svg11.dtd" [
	<!ENTITY ns_extend "http://ns.adobe.com/Extensibility/1.0/">
	<!ENTITY ns_ai "http://ns.adobe.com/AdobeIllustrator/10.0/">
	<!ENTITY ns_graphs "http://ns.adobe.com/Graphs/1.0/">
	<!ENTITY ns_vars "http://ns.adobe.com/Variables/1.0/">
	<!ENTITY ns_imrep "http://ns.adobe.com/ImageReplacement/1.0/">
	<!ENTITY ns_sfw "http://ns.adobe.com/SaveForWeb/1.0/">
	<!ENTITY ns_custom "http://ns.adobe.com/GenericCustomNamespace/1.0/">
	<!ENTITY ns_adobe_xpath "http://ns.adobe.com/XPath/1.0/">
]>
<svg version="1.1" id="Слой_1" xmlns:x="&ns_extend;" xmlns:i="&ns_ai;" xmlns:graph="&ns_graphs;"
	 xmlns="http://www.w3.org/2000/svg" xmlns:xlink="http://www.w3.org/1999/xlink" x="0px" y="0px" width="200px" height="50px"
	 viewBox="0 0 200 50" enable-background="new 0 0 200 50" xml:space="preserve">
<metadata>
	<sfw  xmlns="&ns_sfw;">
		<slices></slices>
		<sliceSourceBounds  width="197.977" height="44.695" y="-47.695" x="1.386" bottomLeftOrigin="true"></sliceSourceBounds>
		<optimizationSettings></optimizationSettings>
	</sfw>
</metadata>
<g>
	<g>
		<g>
			<path fill="#ECEAEC" d="M61.84,27.165c-0.154,1.843-0.846,3.29-2.075,4.334c-1.262,1.016-2.921,1.522-4.98,1.522
				c-2.398,0-4.228-0.722-5.488-2.168c-1.261-1.385-1.891-3.429-1.891-6.133c0-2.769,0.645-4.843,1.937-6.227
				c1.322-1.444,3.228-2.167,5.719-2.167c2.028,0,3.643,0.507,4.841,1.521c1.138,0.983,1.784,2.368,1.938,4.151h-1.982
				c-0.739,0-1.262-0.324-1.569-0.969c-0.215-0.397-0.477-0.753-0.784-1.06c-0.615-0.461-1.43-0.692-2.444-0.692
				c-1.415,0-2.507,0.461-3.275,1.383c-0.737,0.923-1.106,2.276-1.106,4.06c0,1.722,0.37,3.044,1.106,3.965
				c0.708,0.955,1.768,1.431,3.183,1.431c0.983,0,1.798-0.248,2.445-0.739c0.583-0.461,0.999-1.198,1.244-2.212H61.84z"/>
			<path fill="#ECEAEC" d="M65.234,31.545c-0.645-0.553-1.106-1.299-1.384-2.236c-0.276-0.938-0.415-1.915-0.415-2.929
				c0-0.83,0.115-1.659,0.346-2.489c0.231-0.832,0.592-1.523,1.084-2.076c0.798-0.922,1.829-1.468,3.088-1.637
				c1.261-0.169,2.399-0.07,3.414,0.298c1.167,0.461,2.029,1.263,2.583,2.4c0.521,1.015,0.784,2.197,0.784,3.55
				c0,0.983-0.108,1.83-0.324,2.537s-0.493,1.307-0.83,1.798c-0.738,1.014-1.676,1.646-2.813,1.89
				c-1.014,0.277-2.037,0.301-3.067,0.07C66.671,32.491,65.849,32.099,65.234,31.545z M67.448,23.43
				c-0.646,0.706-0.938,1.759-0.876,3.158c0.062,1.397,0.323,2.376,0.784,2.929c0.185,0.246,0.508,0.453,0.969,0.623
				c0.462,0.168,0.929,0.185,1.407,0.045c0.477-0.137,0.899-0.483,1.268-1.038c0.369-0.553,0.569-1.444,0.601-2.675
				c0-1.106-0.178-1.936-0.531-2.489c-0.354-0.553-0.761-0.907-1.222-1.061c-0.461-0.154-0.921-0.162-1.384-0.023
				C68.001,23.038,67.663,23.215,67.448,23.43z"/>
			<path fill="#ECEAEC" d="M87.122,32.651H83.94v-7.193v-0.646c0-0.738-0.224-1.277-0.671-1.615
				c-0.444-0.338-0.944-0.505-1.498-0.505c-0.553,0-1.044,0.167-1.476,0.505c-0.432,0.338-0.646,0.877-0.646,1.615v7.839h-3.228
				v-7.193c0-2.091,0.544-3.49,1.637-4.196c1.09-0.707,2.297-1.091,3.62-1.154c0.707,0,1.398,0.078,2.076,0.231
				c0.676,0.155,1.29,0.462,1.844,0.923c0.46-0.399,1.007-0.685,1.637-0.854s1.284-0.27,1.96-0.301c1.354,0,2.598,0.355,3.736,1.062
				c1.137,0.707,1.707,2.137,1.707,4.289v7.193h-1.614c-0.461,0-0.838-0.146-1.128-0.438c-0.293-0.291-0.439-0.669-0.439-1.13
				v-6.271c0-0.738-0.224-1.277-0.67-1.615c-0.444-0.338-0.944-0.505-1.497-0.505c-0.553,0-1.055,0.167-1.5,0.505
				c-0.445,0.338-0.667,0.877-0.667,1.615v0.646V32.651z"/>
			<path fill="#ECEAEC" d="M107.395,32.651h-3.182v-7.193v-0.646c0-0.738-0.224-1.277-0.671-1.615
				c-0.443-0.338-0.944-0.505-1.496-0.505c-0.554,0-1.047,0.167-1.476,0.505c-0.432,0.338-0.647,0.877-0.647,1.615v7.839h-3.228
				v-7.193c0-2.091,0.544-3.49,1.637-4.196c1.092-0.707,2.298-1.091,3.621-1.154c0.707,0,1.398,0.078,2.074,0.231
				c0.677,0.155,1.292,0.462,1.845,0.923c0.462-0.399,1.009-0.685,1.638-0.854c0.631-0.169,1.283-0.27,1.961-0.301
				c1.352,0,2.598,0.355,3.735,1.062c1.137,0.707,1.707,2.137,1.707,4.289v7.193h-1.615c-0.461,0-0.838-0.146-1.13-0.438
				c-0.292-0.291-0.438-0.669-0.438-1.13v-6.271c0-0.738-0.223-1.277-0.668-1.615c-0.447-0.338-0.945-0.505-1.499-0.505
				c-0.553,0-1.053,0.167-1.498,0.505c-0.447,0.338-0.67,0.877-0.67,1.615v0.646V32.651z"/>
			<path fill="#ECEAEC" d="M125.5,28.87h2.306c-0.338,1.292-0.984,2.275-1.937,2.951c-0.952,0.708-2.151,1.062-3.597,1.062
				c-1.754,0-3.121-0.57-4.104-1.707c-0.984-1.105-1.476-2.689-1.476-4.749c0-1.967,0.475-3.505,1.429-4.612
				c0.985-1.137,2.354-1.707,4.104-1.707c1.845,0,3.274,0.553,4.289,1.66c0.982,1.138,1.477,2.723,1.477,4.752
				c0,0.122,0,0.229,0,0.321c0,0.094,0,0.155,0,0.185c0,0.154-0.016,0.263-0.047,0.323h-7.979c0.031,0.954,0.261,1.659,0.692,2.12
				c0.399,0.494,0.998,0.74,1.798,0.74c0.523,0,0.97-0.108,1.337-0.323c0.095-0.031,0.177-0.085,0.254-0.162
				c0.077-0.075,0.163-0.162,0.255-0.255c0.03-0.092,0.146-0.213,0.345-0.367C124.847,28.948,125.131,28.87,125.5,28.87z
				 M119.966,25.273h4.704c-0.061-0.83-0.276-1.444-0.646-1.843c-0.399-0.431-0.969-0.647-1.707-0.647
				c-0.675,0-1.229,0.216-1.659,0.647C120.227,23.86,119.997,24.474,119.966,25.273z"/>
			<path fill="#ECEAEC" d="M129.68,32.651v-5.948c0-1.198,0.176-2.206,0.53-3.021c0.352-0.813,0.837-1.468,1.452-1.959
				c0.584-0.46,1.268-0.799,2.051-1.014c0.785-0.215,1.593-0.324,2.422-0.324c0.062,0,0.138,0,0.23,0c0.094,0,0.169,0,0.23,0v3.273
				h-1.06c-0.893,0-1.553,0.217-1.985,0.647c-0.428,0.43-0.645,1.106-0.645,2.031v6.315H129.68z"/>
			<path fill="#ECEAEC" d="M146.63,28.87h2.309c-0.339,1.292-0.985,2.275-1.938,2.951c-0.954,0.708-2.152,1.062-3.599,1.062
				c-1.753,0-3.118-0.57-4.104-1.707c-0.985-1.105-1.477-2.689-1.477-4.749c0-1.967,0.478-3.505,1.43-4.612
				c0.984-1.137,2.354-1.707,4.106-1.707c1.843,0,3.271,0.553,4.286,1.66c0.556,0.678,0.955,1.46,1.2,2.353h-3.228
				c-0.153-0.306-0.308-0.537-0.461-0.69c-0.399-0.431-0.969-0.647-1.707-0.647c-0.677,0-1.229,0.216-1.659,0.647
				c-0.554,0.614-0.831,1.628-0.831,3.042c0,1.416,0.277,2.415,0.831,2.997c0.399,0.494,0.996,0.74,1.799,0.74
				c0.521,0,0.968-0.108,1.337-0.323c0.092-0.031,0.177-0.085,0.252-0.162c0.078-0.075,0.162-0.162,0.254-0.255
				c0.063-0.092,0.186-0.213,0.371-0.367C145.985,28.948,146.263,28.87,146.63,28.87z"/>
			<path fill="#ECEAEC" d="M159.157,28.87h2.306c-0.339,1.292-0.985,2.275-1.938,2.951c-0.952,0.708-2.152,1.062-3.596,1.062
				c-1.754,0-3.122-0.57-4.106-1.707c-0.982-1.105-1.474-2.689-1.474-4.749c0-1.967,0.474-3.505,1.43-4.612
				c0.983-1.137,2.352-1.707,4.104-1.707c1.846,0,3.274,0.553,4.29,1.66c0.982,1.138,1.473,2.723,1.473,4.752
				c0,0.122,0,0.229,0,0.321c0,0.094,0,0.155,0,0.185c0,0.154-0.014,0.263-0.044,0.323h-7.979c0.031,0.954,0.262,1.659,0.691,2.12
				c0.399,0.494,0.999,0.74,1.799,0.74c0.521,0,0.969-0.108,1.337-0.323c0.092-0.031,0.177-0.085,0.254-0.162
				c0.077-0.075,0.162-0.162,0.253-0.255c0.031-0.092,0.146-0.213,0.347-0.367C158.503,28.948,158.788,28.87,159.157,28.87z
				 M153.623,25.273h4.704c-0.063-0.83-0.276-1.444-0.646-1.843c-0.399-0.431-0.968-0.647-1.706-0.647
				c-0.678,0-1.23,0.216-1.66,0.647C153.885,23.86,153.654,24.474,153.623,25.273z"/>
			<path fill="#ED7A65" d="M163.335,32.651V18.449c0-0.461,0.162-0.854,0.484-1.176c0.323-0.324,0.716-0.485,1.177-0.485h1.612
				v12.914h7.75v2.95H163.335z"/>
			<path fill="#ED7A65" d="M183.886,32.146c-0.646,0.337-1.331,0.544-2.052,0.623c-0.725,0.074-1.361,0.113-1.916,0.113
				c-1.104,0-2.073-0.299-2.905-0.899c-0.829-0.6-1.243-1.59-1.243-2.976c0-1.29,0.375-2.212,1.13-2.767
				c0.753-0.553,1.712-0.92,2.882-1.106c0.153,0,0.337-0.024,0.553-0.068c0.216-0.048,0.462-0.085,0.737-0.116
				c1.352-0.185,2.03-0.583,2.03-1.199c0-0.463-0.238-0.761-0.715-0.901c-0.478-0.137-0.916-0.207-1.315-0.207
				c-0.429,0-0.814,0.061-1.153,0.184c-0.339,0.124-0.583,0.355-0.735,0.692h-3.091c0.121-0.953,0.554-1.737,1.29-2.352
				c0.832-0.707,2.014-1.062,3.553-1.062c1.722,0,3.013,0.293,3.873,0.877c0.893,0.614,1.337,1.475,1.337,2.581v4.198
				c0,1.229-0.223,2.191-0.667,2.881C185.03,31.338,184.5,31.839,183.886,32.146z M183.147,26.472
				c-0.432,0.216-1.029,0.417-1.798,0.601l-1.063,0.229c-0.553,0.155-0.952,0.354-1.198,0.601c-0.215,0.338-0.322,0.676-0.322,1.014
				c0,0.461,0.139,0.83,0.416,1.106c0.275,0.248,0.674,0.371,1.197,0.371c0.86,0,1.538-0.247,2.029-0.739
				c0.492-0.49,0.738-1.168,0.738-2.028V26.472z"/>
			<path fill="#ED7A65" d="M190.924,18.309v3.69c0.337-0.583,0.83-1.061,1.476-1.43c0.553-0.308,1.229-0.461,2.028-0.461
				c1.445,0,2.629,0.601,3.553,1.799c0.921,1.198,1.382,2.752,1.382,4.656c0,1.909-0.461,3.459-1.382,4.659
				c-0.462,0.585-1.087,1.009-1.869,1.269c-0.786,0.261-1.561,0.392-2.329,0.392c-1.476,0-2.844-0.385-4.104-1.153
				c-1.26-0.769-1.893-2.243-1.893-4.428v-10.56h1.568c0.432,0,0.802,0.154,1.108,0.461C190.769,17.51,190.924,17.88,190.924,18.309
				z M196.179,26.427c0-1.106-0.228-1.967-0.69-2.583c-0.46-0.646-1.09-0.967-1.89-0.967c-0.861,0-1.522,0.308-1.983,0.92
				c-0.46,0.647-0.691,1.524-0.691,2.63c0,1.291,0.214,2.229,0.645,2.814c0.46,0.645,1.106,0.968,1.939,0.968
				c0.856,0,1.521-0.323,1.98-0.968C195.951,28.594,196.179,27.656,196.179,26.427z"/>
		</g>
	</g>
	<path fill="#8F908F" d="M36.151,34.277c-0.133,0.2-0.297,0.364-0.475,0.468l-13.92,8.036c-0.216,0.127-0.502,0.193-0.788,0.193
		c-0.286,0-0.57-0.066-0.784-0.193L6.262,34.745c-0.18-0.104-0.344-0.268-0.478-0.468l-4.09,2.361
		c0.133,0.197,0.298,0.36,0.481,0.469l18.009,10.395c0.214,0.121,0.498,0.193,0.784,0.193c0.286,0,0.572-0.072,0.788-0.193
		l18.011-10.395c0.179-0.108,0.345-0.271,0.475-0.469L36.151,34.277z"/>
	<g>
		<g>
			<path fill="#F4F3F4" d="M40.402,14.336c-0.141-0.313-0.375-0.596-0.635-0.749L21.756,3.191C21.54,3.064,21.254,3,20.968,3
				c-0.286,0-0.57,0.064-0.784,0.191L2.175,13.588c-0.266,0.152-0.498,0.438-0.639,0.75c-0.095,0.203-0.15,0.416-0.15,0.612v20.795
				c0,0.286,0.122,0.612,0.308,0.893l4.09-2.361c-0.186-0.276-0.308-0.598-0.308-0.895V17.312c0-0.198,0.056-0.413,0.15-0.617
				C5.769,16.384,6,16.097,6.262,15.947l14.707-8.491l14.708,8.491c0.258,0.15,0.492,0.437,0.634,0.748
				c0.092,0.204,0.152,0.418,0.152,0.617v16.071c0,0.297-0.124,0.623-0.311,0.895l4.09,2.361c0.188-0.276,0.31-0.606,0.31-0.893
				V14.951C40.551,14.754,40.494,14.542,40.402,14.336z"/>
		</g>
	</g>
	<path fill="#ED7A65" d="M28.126,30.389l-6.37,3.678c-0.216,0.125-0.502,0.186-0.788,0.186c-0.286,0-0.57-0.061-0.786-0.186
		l-6.371-3.678c-0.178-0.105-0.339-0.27-0.47-0.465c-0.19-0.275-0.315-0.605-0.315-0.9V21.67c0-0.202,0.058-0.419,0.15-0.625
		c0.146-0.311,0.375-0.592,0.634-0.741l7.157-4.13l7.158,4.13c0.257,0.149,0.487,0.43,0.633,0.741l2.727-1.57
		c-0.144-0.311-0.372-0.595-0.635-0.741l-9.094-5.253c-0.216-0.126-0.502-0.189-0.788-0.186c-0.286,0-0.57,0.059-0.786,0.186
		l-9.096,5.253c-0.26,0.146-0.493,0.43-0.636,0.741c-0.094,0.201-0.15,0.421-0.15,0.619v10.5c0,0.299,0.122,0.627,0.312,0.904
		c0.13,0.192,0.296,0.361,0.474,0.461l9.096,5.253c0.216,0.125,0.5,0.185,0.786,0.185c0.286,0.004,0.572-0.06,0.788-0.185
		l9.094-5.253c0.179-0.1,0.343-0.266,0.475-0.461l-2.728-1.573C28.467,30.119,28.305,30.283,28.126,30.389z"/>
</g>
</svg>
