<?xml version="1.0" encoding="utf-8"?>
<!-- Generator: Adobe Illustrator 23.1.0, SVG Export Plug-In . SVG Version: 6.00 Build 0)  -->
<svg version="1.1" id="Слой_1" xmlns="http://www.w3.org/2000/svg" xmlns:xlink="http://www.w3.org/1999/xlink" x="0px" y="0px"
	 viewBox="0 0 198 44.7" style="enable-background:new 0 0 198 44.7;" xml:space="preserve">
<style type="text/css">
	.st0{fill:#ECEAEC;}
	.st1{fill:#ED7A65;}
	.st2{fill:#8F908F;}
	.st3{fill:#F4F3F4;}
</style>
<g>
	<g>
		<g>
			<path class="st0" d="M60.5,24.2c-0.2,1.8-0.8,3.3-2.1,4.3c-1.3,1-2.9,1.5-5,1.5c-2.4,0-4.2-0.7-5.5-2.2c-1.3-1.4-1.9-3.4-1.9-6.1
				c0-2.8,0.6-4.8,1.9-6.2c1.3-1.4,3.2-2.2,5.7-2.2c2,0,3.6,0.5,4.8,1.5c1.1,1,1.8,2.4,1.9,4.2h-2c-0.7,0-1.3-0.3-1.6-1
				c-0.2-0.4-0.5-0.8-0.8-1.1c-0.6-0.5-1.4-0.7-2.4-0.7c-1.4,0-2.5,0.5-3.3,1.4c-0.7,0.9-1.1,2.3-1.1,4.1c0,1.7,0.4,3,1.1,4
				c0.7,1,1.8,1.4,3.2,1.4c1,0,1.8-0.2,2.4-0.7c0.6-0.5,1-1.2,1.2-2.2H60.5z"/>
			<path class="st0" d="M63.8,28.5c-0.6-0.6-1.1-1.3-1.4-2.2c-0.3-0.9-0.4-1.9-0.4-2.9c0-0.8,0.1-1.7,0.3-2.5
				c0.2-0.8,0.6-1.5,1.1-2.1c0.8-0.9,1.8-1.5,3.1-1.6c1.3-0.2,2.4-0.1,3.4,0.3c1.2,0.5,2,1.3,2.6,2.4c0.5,1,0.8,2.2,0.8,3.5
				c0,1-0.1,1.8-0.3,2.5s-0.5,1.3-0.8,1.8c-0.7,1-1.7,1.6-2.8,1.9c-1,0.3-2,0.3-3.1,0.1C65.3,29.5,64.5,29.1,63.8,28.5z M66.1,20.4
				c-0.6,0.7-0.9,1.8-0.9,3.2c0.1,1.4,0.3,2.4,0.8,2.9c0.2,0.2,0.5,0.5,1,0.6c0.5,0.2,0.9,0.2,1.4,0c0.5-0.1,0.9-0.5,1.3-1
				c0.4-0.6,0.6-1.4,0.6-2.7c0-1.1-0.2-1.9-0.5-2.5c-0.4-0.6-0.8-0.9-1.2-1.1c-0.5-0.2-0.9-0.2-1.4,0C66.6,20,66.3,20.2,66.1,20.4z"
				/>
			<path class="st0" d="M85.7,29.7h-3.2v-7.2v-0.6c0-0.7-0.2-1.3-0.7-1.6c-0.4-0.3-0.9-0.5-1.5-0.5c-0.6,0-1,0.2-1.5,0.5
				s-0.6,0.9-0.6,1.6v7.8H75v-7.2c0-2.1,0.5-3.5,1.6-4.2c1.1-0.7,2.3-1.1,3.6-1.2c0.7,0,1.4,0.1,2.1,0.2c0.7,0.2,1.3,0.5,1.8,0.9
				c0.5-0.4,1-0.7,1.6-0.9s1.3-0.3,2-0.3c1.4,0,2.6,0.4,3.7,1.1c1.1,0.7,1.7,2.1,1.7,4.3v7.2h-1.6c-0.5,0-0.8-0.1-1.1-0.4
				c-0.3-0.3-0.4-0.7-0.4-1.1v-6.3c0-0.7-0.2-1.3-0.7-1.6c-0.4-0.3-0.9-0.5-1.5-0.5s-1.1,0.2-1.5,0.5s-0.7,0.9-0.7,1.6v0.6
				L85.7,29.7L85.7,29.7z"/>
			<path class="st0" d="M106,29.7h-3.2v-7.2v-0.6c0-0.7-0.2-1.3-0.7-1.6c-0.4-0.3-0.9-0.5-1.5-0.5c-0.6,0-1,0.2-1.5,0.5
				c-0.4,0.3-0.6,0.9-0.6,1.6v7.8h-3.2v-7.2c0-2.1,0.5-3.5,1.6-4.2c1.1-0.7,2.3-1.1,3.6-1.2c0.7,0,1.4,0.1,2.1,0.2
				c0.7,0.2,1.3,0.5,1.8,0.9c0.5-0.4,1-0.7,1.6-0.9c0.6-0.2,1.3-0.3,2-0.3c1.4,0,2.6,0.4,3.7,1.1s1.7,2.1,1.7,4.3v7.2h-1.6
				c-0.5,0-0.8-0.1-1.1-0.4c-0.3-0.3-0.4-0.7-0.4-1.1v-6.3c0-0.7-0.2-1.3-0.7-1.6c-0.4-0.3-0.9-0.5-1.5-0.5c-0.6,0-1.1,0.2-1.5,0.5
				c-0.4,0.3-0.7,0.9-0.7,1.6v0.6C106,22.5,106,29.7,106,29.7z"/>
			<path class="st0" d="M124.1,25.9h2.3c-0.3,1.3-1,2.3-1.9,3c-1,0.7-2.2,1.1-3.6,1.1c-1.8,0-3.1-0.6-4.1-1.7
				c-1-1.1-1.5-2.7-1.5-4.7c0-2,0.5-3.5,1.4-4.6c1-1.1,2.4-1.7,4.1-1.7c1.8,0,3.3,0.6,4.3,1.7c1,1.1,1.5,2.7,1.5,4.8
				c0,0.1,0,0.2,0,0.3c0,0.1,0,0.2,0,0.2c0,0.2,0,0.3,0,0.3h-8c0,1,0.3,1.7,0.7,2.1c0.4,0.5,1,0.7,1.8,0.7c0.5,0,1-0.1,1.3-0.3
				c0.1,0,0.2-0.1,0.3-0.2c0.1-0.1,0.2-0.2,0.3-0.3c0-0.1,0.1-0.2,0.3-0.4C123.5,25.9,123.7,25.9,124.1,25.9z M118.6,22.3h4.7
				c-0.1-0.8-0.3-1.4-0.6-1.8c-0.4-0.4-1-0.6-1.7-0.6c-0.7,0-1.2,0.2-1.7,0.6C118.8,20.9,118.6,21.5,118.6,22.3z"/>
			<path class="st0" d="M128.3,29.7v-5.9c0-1.2,0.2-2.2,0.5-3c0.4-0.8,0.8-1.5,1.5-2c0.6-0.5,1.3-0.8,2.1-1c0.8-0.2,1.6-0.3,2.4-0.3
				c0.1,0,0.1,0,0.2,0c0.1,0,0.2,0,0.2,0v3.3h-1.1c-0.9,0-1.6,0.2-2,0.6c-0.4,0.4-0.6,1.1-0.6,2v6.3H128.3z"/>
			<path class="st0" d="M145.2,25.9h2.3c-0.3,1.3-1,2.3-1.9,3c-1,0.7-2.2,1.1-3.6,1.1c-1.8,0-3.1-0.6-4.1-1.7
				c-1-1.1-1.5-2.7-1.5-4.7c0-2,0.5-3.5,1.4-4.6c1-1.1,2.4-1.7,4.1-1.7c1.8,0,3.3,0.6,4.3,1.7c0.6,0.7,1,1.5,1.2,2.4h-3.2
				c-0.2-0.3-0.3-0.5-0.5-0.7c-0.4-0.4-1-0.6-1.7-0.6c-0.7,0-1.2,0.2-1.7,0.6c-0.6,0.6-0.8,1.6-0.8,3c0,1.4,0.3,2.4,0.8,3
				c0.4,0.5,1,0.7,1.8,0.7c0.5,0,1-0.1,1.3-0.3c0.1,0,0.2-0.1,0.3-0.2c0.1-0.1,0.2-0.2,0.3-0.3c0.1-0.1,0.2-0.2,0.4-0.4
				C144.6,25.9,144.9,25.9,145.2,25.9z"/>
			<path class="st0" d="M157.8,25.9h2.3c-0.3,1.3-1,2.3-1.9,3c-1,0.7-2.2,1.1-3.6,1.1c-1.8,0-3.1-0.6-4.1-1.7
				c-1-1.1-1.5-2.7-1.5-4.7c0-2,0.5-3.5,1.4-4.6c1-1.1,2.4-1.7,4.1-1.7c1.8,0,3.3,0.6,4.3,1.7c1,1.1,1.5,2.7,1.5,4.8
				c0,0.1,0,0.2,0,0.3c0,0.1,0,0.2,0,0.2c0,0.2,0,0.3,0,0.3h-8c0,1,0.3,1.7,0.7,2.1c0.4,0.5,1,0.7,1.8,0.7c0.5,0,1-0.1,1.3-0.3
				c0.1,0,0.2-0.1,0.3-0.2c0.1-0.1,0.2-0.2,0.3-0.3c0-0.1,0.1-0.2,0.3-0.4C157.1,25.9,157.4,25.9,157.8,25.9z M152.2,22.3h4.7
				c-0.1-0.8-0.3-1.4-0.6-1.8c-0.4-0.4-1-0.6-1.7-0.6c-0.7,0-1.2,0.2-1.7,0.6C152.5,20.9,152.3,21.5,152.2,22.3z"/>
			<path class="st1" d="M161.9,29.7V15.4c0-0.5,0.2-0.9,0.5-1.2c0.3-0.3,0.7-0.5,1.2-0.5h1.6v12.9h7.8v2.9L161.9,29.7L161.9,29.7z"
				/>
			<path class="st1" d="M182.5,29.1c-0.6,0.3-1.3,0.5-2.1,0.6c-0.7,0.1-1.4,0.1-1.9,0.1c-1.1,0-2.1-0.3-2.9-0.9
				c-0.8-0.6-1.2-1.6-1.2-3c0-1.3,0.4-2.2,1.1-2.8c0.8-0.6,1.7-0.9,2.9-1.1c0.2,0,0.3,0,0.6-0.1c0.2,0,0.5-0.1,0.7-0.1
				c1.4-0.2,2-0.6,2-1.2c0-0.5-0.2-0.8-0.7-0.9c-0.5-0.1-0.9-0.2-1.3-0.2c-0.4,0-0.8,0.1-1.2,0.2c-0.3,0.1-0.6,0.4-0.7,0.7h-3.1
				c0.1-1,0.6-1.7,1.3-2.4c0.8-0.7,2-1.1,3.6-1.1c1.7,0,3,0.3,3.9,0.9c0.9,0.6,1.3,1.5,1.3,2.6v4.2c0,1.2-0.2,2.2-0.7,2.9
				C183.6,28.3,183.1,28.8,182.5,29.1z M181.8,23.5c-0.4,0.2-1,0.4-1.8,0.6l-1.1,0.2c-0.6,0.2-1,0.4-1.2,0.6c-0.2,0.3-0.3,0.7-0.3,1
				c0,0.5,0.1,0.8,0.4,1.1c0.3,0.2,0.7,0.4,1.2,0.4c0.9,0,1.5-0.2,2-0.7c0.5-0.5,0.7-1.2,0.7-2L181.8,23.5L181.8,23.5z"/>
			<path class="st1" d="M189.5,15.3V19c0.3-0.6,0.8-1.1,1.5-1.4c0.6-0.3,1.2-0.5,2-0.5c1.4,0,2.6,0.6,3.6,1.8
				c0.9,1.2,1.4,2.8,1.4,4.7c0,1.9-0.5,3.5-1.4,4.7c-0.5,0.6-1.1,1-1.9,1.3c-0.8,0.3-1.6,0.4-2.3,0.4c-1.5,0-2.8-0.4-4.1-1.2
				c-1.3-0.8-1.9-2.2-1.9-4.4V13.7h1.6c0.4,0,0.8,0.2,1.1,0.5C189.4,14.5,189.5,14.9,189.5,15.3z M194.8,23.4c0-1.1-0.2-2-0.7-2.6
				c-0.5-0.6-1.1-1-1.9-1c-0.9,0-1.5,0.3-2,0.9c-0.5,0.6-0.7,1.5-0.7,2.6c0,1.3,0.2,2.2,0.6,2.8c0.5,0.6,1.1,1,1.9,1
				c0.9,0,1.5-0.3,2-1C194.6,25.6,194.8,24.7,194.8,23.4z"/>
		</g>
	</g>
	<path class="st2" d="M34.8,31.3c-0.1,0.2-0.3,0.4-0.5,0.5l-13.9,8c-0.2,0.1-0.5,0.2-0.8,0.2s-0.6-0.1-0.8-0.2l-13.9-8
		c-0.2-0.1-0.3-0.3-0.5-0.5l-4.1,2.4c0.1,0.2,0.3,0.4,0.5,0.5l18,10.4c0.2,0.1,0.5,0.2,0.8,0.2c0.3,0,0.6-0.1,0.8-0.2l18-10.4
		c0.2-0.1,0.3-0.3,0.5-0.5L34.8,31.3z"/>
	<g>
		<g>
			<path class="st3" d="M39,11.3c-0.1-0.3-0.4-0.6-0.6-0.7l-18-10.4C20.2,0.1,19.9,0,19.6,0S19,0.1,18.8,0.2l-18,10.4
				c-0.3,0.2-0.5,0.4-0.6,0.8C0.1,11.5,0,11.8,0,12v20.8c0,0.3,0.1,0.6,0.3,0.9l4.1-2.4c-0.2-0.3-0.3-0.6-0.3-0.9V14.3
				c0-0.2,0.1-0.4,0.2-0.6c0.1-0.3,0.4-0.6,0.6-0.7l14.7-8.5l14.7,8.5c0.3,0.2,0.5,0.4,0.6,0.7c0.1,0.2,0.2,0.4,0.2,0.6v16.1
				c0,0.3-0.1,0.6-0.3,0.9l4.1,2.4c0.2-0.3,0.3-0.6,0.3-0.9V12C39.2,11.8,39.1,11.5,39,11.3z"/>
		</g>
	</g>
	<path class="st1" d="M26.7,27.4l-6.4,3.7c-0.2,0.1-0.5,0.2-0.8,0.2s-0.6-0.1-0.8-0.2l-6.4-3.7c-0.2-0.1-0.3-0.3-0.5-0.5
		c-0.2-0.3-0.3-0.6-0.3-0.9v-7.4c0-0.2,0.1-0.4,0.1-0.6c0.1-0.3,0.4-0.6,0.6-0.7l7.2-4.1l7.2,4.1c0.3,0.1,0.5,0.4,0.6,0.7l2.7-1.6
		c-0.1-0.3-0.4-0.6-0.6-0.7l-9.1-5.3c-0.2-0.1-0.5-0.2-0.8-0.2c-0.3,0-0.6,0.1-0.8,0.2l-9.1,5.3c-0.3,0.1-0.5,0.4-0.6,0.7
		c-0.1,0.2-0.1,0.4-0.1,0.6v10.5c0,0.3,0.1,0.6,0.3,0.9c0.1,0.2,0.3,0.4,0.5,0.5l9.1,5.3c0.2,0.1,0.5,0.2,0.8,0.2
		c0.3,0,0.6-0.1,0.8-0.2l9.1-5.3c0.2-0.1,0.3-0.3,0.5-0.5l-2.7-1.6C27.1,27.1,26.9,27.3,26.7,27.4z"/>
</g>
</svg>
