<svg version="1.1" id="Слой_1" xmlns="http://www.w3.org/2000/svg" x="0" y="0" width="200" height="50" xml:space="preserve"><path fill="#ECEAEC" d="M75.547 26.046c-.107 1.289-.591 2.301-1.451 3.03-.882.71-2.042 1.064-3.482 1.064-1.677 0-2.956-.505-3.837-1.516-.882-.968-1.322-2.397-1.322-4.288 0-1.936.451-3.386 1.354-4.354.924-1.01 2.257-1.515 3.999-1.515 1.418 0 2.547.354 3.385 1.063.795.688 1.247 1.655 1.354 2.902h-1.386c-.517 0-.882-.227-1.097-.678a3.172 3.172 0 00-.548-.741c-.43-.322-1-.483-1.709-.483-.989 0-1.752.322-2.29.967-.516.646-.774 1.592-.774 2.838 0 1.204.258 2.128.774 2.772.495.667 1.236 1 2.225 1 .688 0 1.257-.173 1.709-.517.408-.322.698-.838.87-1.547h2.226zm2.374 3.062c-.451-.387-.774-.908-.968-1.563a7.215 7.215 0 01-.29-2.048c0-.58.081-1.16.242-1.74.161-.581.414-1.064.758-1.451.558-.645 1.279-1.026 2.16-1.145.881-.118 1.677-.049 2.386.209a3.292 3.292 0 011.806 1.678c.365.709.548 1.536.548 2.481 0 .688-.076 1.28-.226 1.774a4.575 4.575 0 01-.58 1.257c-.516.709-1.172 1.15-1.967 1.321-.709.194-1.424.21-2.145.049s-1.294-.435-1.724-.822zm1.547-5.673c-.451.494-.656 1.23-.612 2.208.043.978.226 1.661.548 2.048.129.172.355.316.677.436.323.117.649.129.983.031.333-.096.628-.338.887-.726.258-.387.397-1.01.419-1.87 0-.773-.125-1.354-.371-1.74-.248-.387-.532-.634-.854-.742a1.57 1.57 0 00-.968-.016c-.322.096-.558.22-.709.371zm13.756 6.447h-2.225v-5.48c0-.516-.156-.893-.469-1.129-.311-.236-.66-.354-1.047-.354s-.73.117-1.032.354-.451.613-.451 1.128v5.48h-2.257v-5.029c0-1.461.381-2.439 1.145-2.934a5.008 5.008 0 012.531-.807c.494 0 .978.055 1.451.161.473.108.902.323 1.289.646.322-.279.704-.479 1.145-.597s.897-.188 1.37-.21c.946 0 1.816.248 2.612.742.795.494 1.193 1.494 1.193 2.998v5.029H97.35c-.322 0-.586-.102-.789-.306-.205-.204-.307-.468-.307-.79v-4.385c0-.516-.156-.893-.469-1.129-.311-.236-.66-.354-1.047-.354s-.737.117-1.049.354-.467.613-.467 1.129v5.483zm14.173 0h-2.225v-5.48c0-.516-.156-.893-.469-1.129-.311-.236-.66-.354-1.047-.354s-.731.117-1.031.354c-.302.236-.452.613-.452 1.129v5.48h-2.257v-5.029c0-1.461.381-2.439 1.145-2.934s1.606-.763 2.531-.807c.494 0 .978.055 1.45.161.474.108.903.323 1.29.646a2.853 2.853 0 011.145-.597 6.438 6.438 0 011.371-.21c.945 0 1.816.248 2.611.742s1.193 1.494 1.193 2.998v5.029h-1.129c-.322 0-.586-.102-.79-.306s-.307-.468-.307-.79V24.4c0-.516-.155-.893-.467-1.129-.313-.236-.661-.354-1.048-.354s-.736.117-1.048.354c-.313.236-.468.613-.468 1.129v5.482zm12.659-2.644h1.612c-.236.903-.688 1.591-1.354 2.063-.666.495-1.504.742-2.515.742-1.226 0-2.182-.398-2.87-1.193-.688-.773-1.031-1.881-1.031-3.321 0-1.375.332-2.45.999-3.224.688-.795 1.646-1.193 2.87-1.193 1.289 0 2.289.387 2.998 1.16.688.796 1.032 1.903 1.032 3.322v.354a.569.569 0 01-.032.227h-5.578c.021.666.182 1.16.484 1.482.279.345.697.517 1.257.517.365 0 .678-.075.935-.226a.456.456 0 00.178-.113l.178-.178c.021-.064.102-.149.241-.258.139-.106.338-.161.596-.161zm-3.869-2.514h3.289c-.043-.58-.193-1.01-.451-1.289-.279-.301-.678-.452-1.193-.452-.473 0-.859.151-1.16.452-.304.3-.464.73-.485 1.289zm6.791 5.158v-4.158c0-.838.123-1.543.371-2.112.246-.569.585-1.026 1.016-1.37a3.975 3.975 0 011.434-.709 6.394 6.394 0 011.693-.227h.322v2.289h-.741c-.624 0-1.086.151-1.388.452-.3.301-.451.773-.451 1.419v4.416h-2.256zm11.851-2.644h1.613c-.237.903-.688 1.591-1.354 2.063-.667.495-1.505.742-2.516.742-1.226 0-2.181-.398-2.869-1.193-.688-.773-1.032-1.881-1.032-3.321 0-1.375.334-2.45 1-3.224.688-.795 1.645-1.193 2.87-1.193 1.289 0 2.288.387 2.997 1.16a4.41 4.41 0 01.839 1.645h-2.257a1.87 1.87 0 00-.322-.482c-.279-.301-.677-.452-1.193-.452-.473 0-.859.151-1.16.452-.387.43-.58 1.139-.58 2.127 0 .99.193 1.688.58 2.096.279.345.697.517 1.258.517.365 0 .677-.075.935-.226a.453.453 0 00.177-.113c.055-.053.113-.113.178-.178a1.46 1.46 0 01.259-.258c.126-.107.319-.162.577-.162zm8.758 0h1.612c-.237.903-.688 1.591-1.354 2.063-.666.495-1.505.742-2.515.742-1.226 0-2.183-.398-2.87-1.193-.688-.773-1.031-1.881-1.031-3.321 0-1.375.332-2.45 1-3.224.688-.795 1.644-1.193 2.869-1.193 1.29 0 2.289.387 2.999 1.16.688.796 1.03 1.903 1.03 3.322v.354c0 .108-.01.184-.031.227h-5.578c.021.666.183 1.16.483 1.482.279.345.698.517 1.258.517.364 0 .678-.075.935-.226a.463.463 0 00.178-.113l.177-.178c.021-.064.103-.149.242-.258.139-.106.338-.161.596-.161zm-3.869-2.514h3.289c-.044-.58-.193-1.01-.452-1.289-.279-.301-.677-.452-1.192-.452-.474 0-.86.151-1.161.452s-.463.73-.484 1.289z"/><path fill="#ED7A65" d="M146.508 29.882v-9.93c0-.322.113-.598.339-.822.226-.227.5-.339.822-.339h1.128v9.028h5.418v2.063h-7.707zm14.368-.354a4.011 4.011 0 01-1.435.436c-.507.053-.952.08-1.339.08-.773 0-1.45-.209-2.031-.629-.58-.42-.87-1.111-.87-2.08 0-.902.263-1.547.79-1.935.526-.387 1.197-.644 2.015-.773.107 0 .236-.017.387-.048.15-.033.323-.06.516-.081.945-.129 1.42-.407 1.42-.838 0-.323-.167-.532-.5-.63a3.358 3.358 0 00-.92-.145c-.3 0-.569.043-.806.129a.878.878 0 00-.515.483h-2.161a2.482 2.482 0 01.902-1.644c.581-.494 1.407-.742 2.483-.742 1.203 0 2.106.205 2.708.613.624.43.935 1.031.935 1.805v2.935c0 .859-.155 1.532-.467 2.015-.312.485-.682.834-1.112 1.049zm-.517-3.966c-.302.15-.72.291-1.257.42l-.742.16c-.387.108-.666.248-.838.42-.15.236-.226.473-.226.709 0 .322.097.58.291.773.192.173.471.26.837.26.602 0 1.075-.173 1.419-.518.344-.343.516-.816.516-1.418v-.806zm5.437-5.708v2.58a2.721 2.721 0 011.032-1c.387-.215.859-.322 1.418-.322 1.011 0 1.838.42 2.483 1.258.645.838.967 1.924.967 3.256 0 1.334-.322 2.418-.967 3.257-.322.409-.759.705-1.307.887a5.122 5.122 0 01-1.628.274 5.42 5.42 0 01-2.87-.807c-.881-.537-1.322-1.568-1.322-3.096v-7.383h1.097c.301 0 .56.107.774.322s.323.475.323.774zm3.675 5.675c0-.772-.159-1.375-.483-1.806-.321-.451-.762-.676-1.321-.676-.602 0-1.063.215-1.386.644-.322.452-.484 1.065-.484 1.838 0 .903.15 1.56.451 1.968.322.451.773.677 1.355.677.6 0 1.063-.226 1.385-.677.324-.452.483-1.107.483-1.968z"/><path fill="#8F9192" d="M57.189 31.208l-9.804 5.661a1.136 1.136 0 01-.555.132v3.326c.201 0 .402-.044.555-.133l12.684-7.322c.127-.074.244-.193.338-.332l-2.882-1.66c-.094.137-.21.256-.336.328z"/><path fill="#F4F3F5" d="M46.831 11.987l10.358 5.981c.184.105.347.307.448.524l2.882-1.659c-.101-.22-.264-.422-.45-.528L47.385 8.981a1.135 1.135 0 00-.555-.131v3.139l.001-.002zm13.793 5.279c0-.138-.04-.289-.105-.432l-2.882 1.659c.066.145.106.297.106.436v11.319c0 .206-.087.438-.219.632l2.882 1.66c.131-.192.217-.424.217-.629V17.266z"/><path fill="#8F9192" d="M46.277 36.869l-9.804-5.661a1.068 1.068 0 01-.336-.328l-2.882 1.66c.094.139.209.258.337.332l12.685 7.322c.152.088.353.133.553.133v-3.326c-.2 0-.401-.044-.553-.132z"/><path fill="#F4F3F5" d="M36.473 17.969L46.83 11.99V8.851c-.201 0-.401.044-.553.131l-12.685 7.324c-.185.106-.349.309-.45.529l2.882 1.66c.102-.22.265-.42.449-.526z"/><path fill="#F4F3F5" d="M35.919 30.248V18.929c0-.139.04-.29.106-.434l-2.882-1.66a1.067 1.067 0 00-.104.431v14.646c0 .205.086.436.217.629l2.882-1.66a1.177 1.177 0 01-.219-.633z"/><path fill="#EC7968" d="M51.872 28.139l-4.486 2.591a1.124 1.124 0 01-.555.131v2.217c.201.002.402-.043.555-.131l6.407-3.699a1.07 1.07 0 00.333-.325l-1.921-1.106a1.13 1.13 0 01-.333.322z"/><path fill="#EC7766" d="M39.87 19.93c-.184.105-.346.306-.446.522l1.92 1.107c.102-.218.263-.416.446-.521l5.04-2.91v-2.029c-.201 0-.401.045-.554.132L39.87 19.93z"/><path fill="#EC7867" d="M46.831 18.128l5.041 2.91c.183.105.344.303.445.521l1.921-1.106a1.176 1.176 0 00-.446-.522l-6.407-3.699a1.125 1.125 0 00-.555-.132l.001 2.028z"/><path fill="#EC7968" d="M41.236 27.179v-5.181c0-.142.042-.294.108-.438l-1.92-1.107a1.07 1.07 0 00-.108.438v7.397c0 .207.087.44.221.635l1.921-1.107c-.134-.196-.222-.43-.222-.637z"/><path fill="#EC7968" d="M46.277 30.729l-4.486-2.591a1.078 1.078 0 01-.333-.324l-1.921 1.107c.093.136.208.253.333.325l6.407 3.699c.152.088.353.131.554.131V30.86c-.201 0-.402-.043-.554-.131z"/></svg>