<svg version="1.1" id="Слой_1" xmlns="http://www.w3.org/2000/svg" x="0" y="0" viewBox="0 0 138.6 31.5" xml:space="preserve"><style>.st0{fill:#1a1a1a}.st1{fill:#ed7867}.st2{fill:#999}</style><path class="st0" d="M42.5 17.2c-.1 1.3-.6 2.3-1.4 3-.9.7-2 1.1-3.5 1.1-1.7 0-3-.5-3.8-1.5-.9-1-1.3-2.4-1.3-4.3s.4-3.4 1.3-4.4c.9-1 2.3-1.5 4-1.5 1.4 0 2.6.4 3.4 1.1.8.7 1.3 1.7 1.3 2.9h-1.4c-.5 0-.9-.2-1.1-.7-.2-.3-.3-.5-.6-.7-.4-.3-1-.5-1.7-.5-1 0-1.8.3-2.3 1-.5.6-.8 1.6-.8 2.8 0 1.2.3 2.1.8 2.8.5.7 1.2 1 2.2 1 .7 0 1.3-.2 1.7-.5.4-.3.7-.8.9-1.5l2.3-.1zm2.4 3.1c-.4-.4-.8-.9-1-1.6-.2-.7-.3-1.3-.3-2 0-.6.1-1.2.2-1.7.2-.6.4-1.1.8-1.5.6-.6 1.3-1 2.2-1.1.9-.1 1.7 0 2.4.2.8.3 1.4.9 1.8 1.7.4.7.6 1.5.6 2.5 0 .7-.1 1.3-.2 1.8-.2.5-.3.9-.6 1.3-.5.7-1.2 1.2-2 1.3-.7.2-1.4.2-2.1 0-.8-.3-1.4-.5-1.8-.9zm1.5-5.7c-.4.5-.7 1.2-.6 2.2 0 1 .2 1.7.6 2 .1.2.3.3.7.4.3.1.7.1 1 0 .3-.1.6-.3.9-.7s.4-1 .4-1.9c0-.8-.1-1.3-.4-1.7s-.5-.6-.8-.7-.6-.1-1 0-.6.2-.8.4zM60.2 21H58v-5.4c0-.5-.2-.9-.5-1.1s-.7-.4-1.1-.4-.7.1-1 .4c-.3.2-.4.5-.4 1.1V21h-2.3v-5c0-1.5.4-2.4 1.1-2.9s1.6-.8 2.5-.8c.5 0 1 0 1.4.2.5.1.9.3 1.3.6.3-.3.7-.5 1.1-.6s.9-.2 1.4-.2c.9 0 1.8.3 2.6.7.8.5 1.2 1.5 1.2 3v5h-1.1c-.3 0-.6-.1-.8-.3-.2-.2-.3-.5-.3-.8v-4.4c0-.5-.2-.9-.5-1.1s-.7-.4-1.1-.4-.7.1-1.1.4c-.3.2-.5.6-.5 1.1v.5l.3 5zm14.2 0h-2.2v-5.4c0-.5-.2-.9-.5-1.1s-.7-.4-1.1-.4-.7.1-1 .4c-.3.2-.4.6-.4 1.1V21h-2.3v-5c0-1.5.4-2.4 1.1-2.9.8-.5 1.6-.8 2.5-.8.5 0 1 0 1.4.2.5.1.9.3 1.3.6.3-.3.7-.5 1.1-.6.4-.1.9-.2 1.4-.2.9 0 1.8.3 2.6.7.8.5 1.2 1.5 1.2 3v5h-1.1c-.3 0-.6-.1-.8-.3-.2-.2-.3-.5-.3-.8v-4.4c0-.5-.2-.9-.5-1.1s-.7-.4-1.1-.4-.7.1-1.1.4c-.3.2-.5.6-.5 1.1v.5l.3 5zM87 18.4h1.6c-.2.9-.7 1.6-1.3 2.1-.7.5-1.5.7-2.5.7-1.2 0-2.2-.4-2.9-1.2-.7-.8-1-1.9-1-3.3s.3-2.5 1-3.2c.7-.8 1.6-1.2 2.9-1.2 1.3 0 2.3.4 3 1.2.7.8 1 1.9 1 3.3v.5h-5.6c0 .7.2 1.2.5 1.5.3.3.7.5 1.3.5.4 0 .7-.1.9-.2.1 0 .1-.1.2-.1s.1-.1.2-.2c0-.1.1-.2.2-.3.1-.1.3-.1.5-.1zm-3.9-2.5h3.3c0-.6-.2-1-.4-1.3-.3-.3-.7-.5-1.2-.5s-.9.1-1.2.5c-.3.3-.4.7-.5 1.3zm6.8 5.1v-4.2c0-.8.1-1.5.4-2.1.3-.6.6-1 1-1.4.4-.3.9-.6 1.4-.7.6-.1 1.1-.2 1.7-.2h.4v2.3H94c-.6 0-1.1.1-1.4.5-.3.3-.4.8-.4 1.4V21h-2.3zm11.9-2.6h1.6c-.2.9-.7 1.6-1.4 2.1s-1.5.7-2.5.7c-1.2 0-2.2-.4-2.9-1.2-.7-.8-1-1.9-1-3.3s.3-2.5 1-3.2c.7-.8 1.6-1.2 2.9-1.2 1.3 0 2.3.4 3 1.2.4.5.7 1 .8 1.6H101c-.1-.2-.2-.4-.3-.5-.3-.3-.7-.5-1.2-.5s-.9.1-1.2.5c-.4.4-.6 1.1-.6 2.1s.2 1.7.6 2.1c.3.3.7.5 1.3.5.4 0 .7-.1.9-.2.1 0 .1-.1.2-.1s.1-.1.2-.2c0-.1.1-.1.3-.3.1-.1.3-.1.6-.1zm8.7 0h1.6c-.2.9-.7 1.6-1.4 2.1s-1.5.7-2.5.7c-1.2 0-2.2-.4-2.9-1.2-.7-.8-1-1.9-1-3.3s.3-2.5 1-3.2c.7-.8 1.6-1.2 2.9-1.2 1.3 0 2.3.4 3 1.2.7.8 1 1.9 1 3.3v.5h-5.6c0 .7.2 1.2.5 1.5.3.3.7.5 1.3.5.4 0 .7-.1.9-.2.1 0 .1-.1.2-.1s.1-.1.2-.2c0-.1.1-.2.2-.3.2-.1.4-.1.6-.1zm-3.8-2.5h3.3c0-.6-.2-1-.4-1.3-.3-.3-.7-.5-1.2-.5s-.9.1-1.2.5c-.4.3-.5.7-.5 1.3z"/><path class="st1" d="M113.5 21v-9.9c0-.3.1-.6.3-.8.2-.2.5-.3.8-.3h1.1v9h5.4v2h-7.6zm14.3-.3c-.4.2-.9.4-1.4.4-.5 0-.9.1-1.3.1-.8 0-1.4-.2-2-.6-.6-.4-.9-1.1-.9-2.1 0-.9.3-1.5.8-1.9.5-.4 1.2-.6 2-.8h.4c.1 0 .3-.1.5-.1.9-.1 1.4-.4 1.4-.8 0-.3-.2-.5-.5-.6-.3-.1-.6-.1-.9-.1-.3 0-.6 0-.8.1-.2.1-.4.3-.5.5h-2.2c.1-.7.4-1.2.9-1.6.6-.5 1.4-.7 2.5-.7 1.2 0 2.1.2 2.7.6.6.4.9 1 .9 1.8v2.9c0 .9-.2 1.5-.5 2-.3.3-.6.7-1.1.9zm-.5-4c-.3.2-.7.3-1.3.4l-.7.2c-.4.1-.7.3-.8.4-.1.2-.2.5-.2.7 0 .3.1.6.3.8.2.2.5.3.8.3.6 0 1.1-.2 1.4-.5.3-.3.5-.8.5-1.4v-.9zm5.5-5.7v2.6c.2-.4.6-.7 1-1 .4-.2.9-.3 1.4-.3 1 0 1.8.4 2.5 1.3s1 1.9 1 3.3c0 1.3-.3 2.4-1 3.3-.3.4-.8.7-1.3.9s-1.1.3-1.6.3c-1 0-2-.3-2.9-.8-.9-.5-1.3-1.6-1.3-3.1V9.9h1.1c.3 0 .6.1.8.3.1.2.3.5.3.8zm3.6 5.7c0-.8-.2-1.4-.5-1.8-.3-.5-.8-.7-1.3-.7-.6 0-1.1.2-1.4.6-.3.5-.5 1.1-.5 1.8 0 .9.1 1.6.4 2 .3.5.8.7 1.4.7.6 0 1.1-.2 1.4-.7.4-.4.5-1.1.5-1.9z"/><path class="st0" d="M24.1 22.4L14.3 28c-.2.1-.4.1-.6.1v3.3c.2 0 .4 0 .5-.1L27 24l.3-.3-2.8-1.7c-.1.2-.2.3-.4.4z"/><path class="st2" d="M13.8 3.1l10.4 6c.2.1.3.3.5.5L27.5 8c-.1-.2-.3-.4-.5-.5L14.3.1c-.1-.1-.3-.1-.5-.1v3.1zm13.8 5.3c0-.1 0-.3-.1-.4l-2.9 1.7c.1.1.1.3.1.4v11.3c0 .2-.1.4-.2.6l2.9 1.7c.1-.2.2-.4.2-.6V8.4z"/><path class="st0" d="M13.2 28l-9.8-5.7-.3-.3-2.9 1.7c.1.1.2.3.3.3l12.7 7.3c.2.1.3.1.5.1v-3.3c-.1.1-.3 0-.5-.1z"/><path class="st2" d="M3.4 9.1l10.4-6V0c-.2 0-.4 0-.5.1L.6 7.5c-.2.1-.4.3-.5.5L3 9.6c.1-.2.2-.4.4-.5z"/><path class="st2" d="M2.9 21.4V10.1c0-.1 0-.3.1-.4L.1 8c-.1.1-.1.3-.1.4V23c0 .2.1.4.2.6L3.1 22c-.1-.2-.2-.4-.2-.6z"/><path class="st1" d="M18.8 19.3l-4.5 2.6c-.1.1-.3.1-.5.1v2.2c.2 0 .4 0 .5-.1l6.4-3.7.3-.3-1.8-1.1c-.1.1-.2.2-.4.3zm-12-8.2c-.2.1-.3.3-.5.5l1.9 1.1c.1-.2.3-.4.5-.5l5-2.9v-2c-.2 0-.4 0-.5.1l-6.4 3.7zm7-1.8l5 2.9c.2.1.3.3.5.5l1.9-1.1c-.1-.2-.3-.4-.5-.5l-6.4-3.7c-.2-.1-.3-.1-.5-.1v2z"/><path class="st1" d="M8.2 18.3v-5.2c0-.1 0-.3.1-.4l-1.9-1.1c-.1.1-.1.3-.1.4v7.4c0 .2.1.4.2.6l1.9-1c-.1-.2-.2-.5-.2-.7z"/><path class="st1" d="M13.2 21.9l-4.5-2.6-.3-.3-1.9 1.1c.1.1.2.3.3.3l6.4 3.7c.2.1.3.1.5.1V22c-.1 0-.3 0-.5-.1z"/></svg>