<svg version="1.1" id="Слой_1" xmlns="http://www.w3.org/2000/svg" x="0" y="0" viewBox="0 0 200 50" xml:space="preserve"><style>.st0{fill:#1a1a1a}.st1{fill:#ed7867}.st2{fill:#999}</style><path class="st0" d="M75.55 26.05c-.11 1.29-.59 2.3-1.45 3.03-.88.71-2.04 1.06-3.48 1.06-1.68 0-2.96-.5-3.84-1.52-.88-.97-1.32-2.4-1.32-4.29 0-1.94.45-3.39 1.35-4.35.92-1.01 2.26-1.51 4-1.51 1.42 0 2.55.35 3.38 1.06.8.69 1.25 1.66 1.35 2.9h-1.39c-.52 0-.88-.23-1.1-.68-.15-.28-.33-.53-.55-.74-.43-.32-1-.48-1.71-.48-.99 0-1.75.32-2.29.97-.52.65-.77 1.59-.77 2.84 0 1.2.26 2.13.77 2.77.49.67 1.24 1 2.23 1 .69 0 1.26-.17 1.71-.52.41-.32.7-.84.87-1.55h2.24zm2.37 3.06c-.45-.39-.77-.91-.97-1.56-.19-.66-.29-1.34-.29-2.05 0-.58.08-1.16.24-1.74.16-.58.41-1.06.76-1.45.56-.64 1.28-1.03 2.16-1.14.88-.12 1.68-.05 2.39.21.82.32 1.42.88 1.81 1.68.36.71.55 1.54.55 2.48 0 .69-.08 1.28-.23 1.77-.15.49-.34.91-.58 1.26-.52.71-1.17 1.15-1.97 1.32-.71.19-1.42.21-2.14.05-.72-.17-1.3-.44-1.73-.83zm1.55-5.68c-.45.49-.66 1.23-.61 2.21.04.98.23 1.66.55 2.05.13.17.35.32.68.44.32.12.65.13.98.03.33-.1.63-.34.89-.73.26-.39.4-1.01.42-1.87 0-.77-.12-1.35-.37-1.74-.25-.39-.53-.63-.85-.74-.32-.11-.64-.11-.97-.02-.33.1-.57.22-.72.37zm13.75 6.45H91V24.4c0-.52-.16-.89-.47-1.13-.31-.24-.66-.35-1.05-.35s-.73.12-1.03.35c-.3.24-.45.62-.45 1.13v5.48h-2.26v-5.03c0-1.46.38-2.44 1.14-2.93.76-.49 1.61-.76 2.53-.81.49 0 .98.05 1.45.16s.9.32 1.29.65c.32-.28.7-.48 1.14-.6.44-.12.9-.19 1.37-.21.95 0 1.82.25 2.61.74.79.49 1.19 1.49 1.19 3v5.03h-1.13c-.32 0-.59-.1-.79-.31-.21-.2-.31-.47-.31-.79V24.4c0-.52-.16-.89-.47-1.13-.31-.24-.66-.35-1.05-.35s-.74.12-1.05.35c-.31.24-.47.61-.47 1.13v5.48zm14.18 0h-2.22V24.4c0-.52-.16-.89-.47-1.13-.31-.24-.66-.35-1.05-.35s-.73.12-1.03.35c-.3.24-.45.61-.45 1.13v5.48h-2.26v-5.03c0-1.46.38-2.44 1.14-2.93.76-.49 1.61-.76 2.53-.81.49 0 .98.05 1.45.16s.9.32 1.29.65c.32-.28.71-.48 1.14-.6.44-.12.9-.19 1.37-.21.95 0 1.82.25 2.61.74.79.49 1.19 1.49 1.19 3v5.03h-1.13c-.32 0-.59-.1-.79-.31s-.31-.47-.31-.79V24.4c0-.52-.16-.89-.47-1.13-.31-.24-.66-.35-1.05-.35s-.74.12-1.05.35c-.31.24-.47.61-.47 1.13v5.48zm12.66-2.64h1.61c-.24.9-.69 1.59-1.35 2.06-.67.5-1.5.74-2.51.74-1.23 0-2.18-.4-2.87-1.19-.69-.77-1.03-1.88-1.03-3.32 0-1.38.33-2.45 1-3.22.69-.8 1.65-1.19 2.87-1.19 1.29 0 2.29.39 3 1.16.69.8 1.03 1.9 1.03 3.32v.35c0 .11-.01.18-.03.23h-5.58c.02.67.18 1.16.48 1.48.28.34.7.52 1.26.52.37 0 .68-.08.93-.23.07-.02.12-.06.18-.11l.18-.18c.02-.06.1-.15.24-.26.13-.11.33-.16.59-.16zm-3.87-2.52h3.29c-.04-.58-.19-1.01-.45-1.29-.28-.3-.68-.45-1.19-.45-.47 0-.86.15-1.16.45-.31.31-.47.74-.49 1.29zm6.79 5.16v-4.16c0-.84.12-1.54.37-2.11.25-.57.58-1.03 1.02-1.37.41-.32.89-.56 1.43-.71a6.38 6.38 0 011.69-.23h.32v2.29h-.74c-.62 0-1.09.15-1.39.45-.3.3-.45.77-.45 1.42v4.42h-2.25zm11.85-2.64h1.61c-.24.9-.69 1.59-1.35 2.06-.67.5-1.5.74-2.52.74-1.23 0-2.18-.4-2.87-1.19-.69-.77-1.03-1.88-1.03-3.32 0-1.38.33-2.45 1-3.22.69-.8 1.64-1.19 2.87-1.19 1.29 0 2.29.39 3 1.16.39.47.67 1.02.84 1.64h-2.26c-.11-.21-.21-.38-.32-.48-.28-.3-.68-.45-1.19-.45-.47 0-.86.15-1.16.45-.39.43-.58 1.14-.58 2.13s.19 1.69.58 2.1c.28.34.7.52 1.26.52.37 0 .68-.08.93-.23.06-.02.12-.06.18-.11l.18-.18c.04-.06.13-.15.26-.26.12-.12.31-.17.57-.17zm8.76 0h1.61c-.24.9-.69 1.59-1.35 2.06-.67.5-1.5.74-2.51.74-1.23 0-2.18-.4-2.87-1.19-.69-.77-1.03-1.88-1.03-3.32 0-1.38.33-2.45 1-3.22.69-.8 1.64-1.19 2.87-1.19 1.29 0 2.29.39 3 1.16.69.8 1.03 1.9 1.03 3.32v.35c0 .11-.01.18-.03.23h-5.58c.02.67.18 1.16.48 1.48.28.34.7.52 1.26.52.36 0 .68-.08.93-.23.06-.02.12-.06.18-.11l.18-.18c.02-.06.1-.15.24-.26.13-.11.33-.16.59-.16zm-3.87-2.52h3.29c-.04-.58-.19-1.01-.45-1.29-.28-.3-.68-.45-1.19-.45-.47 0-.86.15-1.16.45-.31.31-.47.74-.49 1.29z"/><path class="st1" d="M146.51 29.88v-9.93c0-.32.11-.6.34-.82.23-.23.5-.34.82-.34h1.13v9.03h5.42v2.06h-7.71zm14.37-.35c-.45.24-.93.38-1.43.44-.51.05-.95.08-1.34.08-.77 0-1.45-.21-2.03-.63-.58-.42-.87-1.11-.87-2.08 0-.9.26-1.55.79-1.93.53-.39 1.2-.64 2.01-.77.11 0 .24-.02.39-.05.15-.03.32-.06.52-.08.95-.13 1.42-.41 1.42-.84 0-.32-.17-.53-.5-.63-.33-.1-.64-.14-.92-.14-.3 0-.57.04-.81.13-.24.09-.41.25-.51.48h-2.16c.08-.67.39-1.21.9-1.64.58-.49 1.41-.74 2.48-.74 1.2 0 2.11.21 2.71.61.62.43.93 1.03.93 1.8v2.93c0 .86-.16 1.53-.47 2.01-.31.48-.68.83-1.11 1.05zm-.52-3.97c-.3.15-.72.29-1.26.42l-.74.16c-.39.11-.67.25-.84.42-.15.24-.23.47-.23.71 0 .32.1.58.29.77.19.17.47.26.84.26.6 0 1.08-.17 1.42-.52.34-.34.52-.82.52-1.42v-.8zm5.44-5.71v2.58c.24-.41.58-.74 1.03-1 .39-.21.86-.32 1.42-.32 1.01 0 1.84.42 2.48 1.26.64.84.97 1.92.97 3.26 0 1.33-.32 2.42-.97 3.26-.32.41-.76.71-1.31.89-.55.18-1.09.27-1.63.27-1.03 0-1.99-.27-2.87-.81-.88-.54-1.32-1.57-1.32-3.1v-7.38h1.1c.3 0 .56.11.77.32.22.22.33.47.33.77zm3.67 5.68c0-.77-.16-1.38-.48-1.81-.32-.45-.76-.68-1.32-.68-.6 0-1.06.21-1.39.64-.32.45-.48 1.07-.48 1.84 0 .9.15 1.56.45 1.97.32.45.77.68 1.36.68.6 0 1.06-.23 1.38-.68.32-.45.48-1.1.48-1.96z"/><path class="st0" d="M57.19 31.21l-9.8 5.66c-.16.09-.36.13-.56.13v3.33c.2 0 .4-.04.55-.13l12.68-7.32c.13-.07.24-.19.34-.33l-2.88-1.66c-.09.13-.2.25-.33.32z"/><path class="st2" d="M46.83 11.99l10.36 5.98c.18.11.35.31.45.52l2.88-1.66c-.1-.22-.26-.42-.45-.53L47.39 8.98c-.15-.09-.35-.13-.55-.13l-.01 3.14zm13.79 5.28c0-.14-.04-.29-.1-.43l-2.88 1.66c.07.14.11.3.11.44v11.32c0 .21-.09.44-.22.63l2.88 1.66c.13-.19.22-.42.22-.63V17.27z"/><path class="st0" d="M46.28 36.87l-9.8-5.66c-.13-.07-.24-.19-.34-.33l-2.88 1.66c.09.14.21.26.34.33l12.68 7.32c.15.09.35.13.55.13V37c-.2 0-.4-.04-.55-.13z"/><path class="st2" d="M36.47 17.97l10.36-5.98V8.85c-.2 0-.4.04-.55.13L33.6 16.3c-.19.11-.35.31-.45.53l2.88 1.66c.1-.21.26-.41.44-.52zm-.55 12.28V18.93c0-.14.04-.29.11-.43l-2.88-1.66c-.07.14-.1.29-.1.43v14.65c0 .21.09.44.22.63l2.88-1.66c-.14-.2-.23-.44-.23-.64z"/><path class="st1" d="M51.87 28.14l-4.49 2.59c-.15.09-.35.13-.55.13v2.22c.2 0 .4-.04.55-.13l6.41-3.7c.13-.07.24-.19.33-.33l-1.92-1.11c-.09.14-.2.26-.33.33zm-12-8.21c-.18.11-.35.31-.45.52l1.92 1.11c.1-.22.26-.42.45-.52l5.04-2.91V16.1c-.2 0-.4.05-.55.13l-6.41 3.7zm6.96-1.8l5.04 2.91c.18.11.34.3.45.52l1.92-1.11c-.1-.22-.26-.42-.45-.52l-6.41-3.7c-.15-.09-.35-.13-.55-.13v2.03z"/><path class="st1" d="M41.24 27.18V22c0-.14.04-.29.11-.44l-1.92-1.11c-.07.14-.11.3-.11.44v7.4c0 .21.09.44.22.63l1.92-1.11c-.14-.19-.22-.42-.22-.63zm5.04 3.55l-4.49-2.59c-.13-.07-.24-.19-.33-.32l-1.92 1.11c.09.14.21.25.33.33l6.41 3.7c.15.09.35.13.55.13v-2.22c-.2-.01-.4-.05-.55-.14z"/></svg>