<svg version="1.1" id="Слой_1" xmlns="http://www.w3.org/2000/svg" x="0" y="0" viewBox="0 0 198 44.7" xml:space="preserve"><style>.st1{fill:#ed7a65}</style><path d="M60.5 24.2c-.2 1.8-.8 3.3-2.1 4.3s-2.9 1.5-5 1.5c-2.4 0-4.2-.7-5.5-2.2-1.3-1.4-1.9-3.4-1.9-6.1 0-2.8.6-4.8 1.9-6.2 1.3-1.4 3.2-2.2 5.7-2.2 2 0 3.6.5 4.8 1.5 1.1 1 1.8 2.4 1.9 4.2h-2c-.7 0-1.3-.3-1.6-1-.2-.4-.5-.8-.8-1.1-.6-.5-1.4-.7-2.4-.7-1.4 0-2.5.5-3.3 1.4-.7.9-1.1 2.3-1.1 4.1 0 1.7.4 3 1.1 4 .7 1 1.8 1.4 3.2 1.4 1 0 1.8-.2 2.4-.7.6-.5 1-1.2 1.2-2.2h3.5zm3.3 4.3c-.6-.6-1.1-1.3-1.4-2.2-.3-.9-.4-1.9-.4-2.9 0-.8.1-1.7.3-2.5.2-.8.6-1.5 1.1-2.1.8-.9 1.8-1.5 3.1-1.6 1.3-.2 2.4-.1 3.4.3 1.2.5 2 1.3 2.6 2.4.5 1 .8 2.2.8 3.5 0 1-.1 1.8-.3 2.5s-.5 1.3-.8 1.8c-.7 1-1.7 1.6-2.8 1.9-1 .3-2 .3-3.1.1-1-.2-1.8-.6-2.5-1.2zm2.3-8.1c-.6.7-.9 1.8-.9 3.2.1 1.4.3 2.4.8 2.9.2.2.5.5 1 .6.5.2.9.2 1.4 0 .5-.1.9-.5 1.3-1 .4-.6.6-1.4.6-2.7 0-1.1-.2-1.9-.5-2.5-.4-.6-.8-.9-1.2-1.1-.5-.2-.9-.2-1.4 0-.6.2-.9.4-1.1.6zm19.6 9.3h-3.2v-7.8c0-.7-.2-1.3-.7-1.6-.4-.3-.9-.5-1.5-.5s-1 .2-1.5.5-.6.9-.6 1.6v7.8H75v-7.2c0-2.1.5-3.5 1.6-4.2 1.1-.7 2.3-1.1 3.6-1.2.7 0 1.4.1 2.1.2.7.2 1.3.5 1.8.9.5-.4 1-.7 1.6-.9s1.3-.3 2-.3c1.4 0 2.6.4 3.7 1.1 1.1.7 1.7 2.1 1.7 4.3v7.2h-1.6c-.5 0-.8-.1-1.1-.4-.3-.3-.4-.7-.4-1.1v-6.3c0-.7-.2-1.3-.7-1.6-.4-.3-.9-.5-1.5-.5s-1.1.2-1.5.5-.7.9-.7 1.6v.6l.1 7.3zm20.3 0h-3.2v-7.8c0-.7-.2-1.3-.7-1.6-.4-.3-.9-.5-1.5-.5s-1 .2-1.5.5c-.4.3-.6.9-.6 1.6v7.8h-3.2v-7.2c0-2.1.5-3.5 1.6-4.2 1.1-.7 2.3-1.1 3.6-1.2.7 0 1.4.1 2.1.2.7.2 1.3.5 1.8.9.5-.4 1-.7 1.6-.9.6-.2 1.3-.3 2-.3 1.4 0 2.6.4 3.7 1.1s1.7 2.1 1.7 4.3v7.2h-1.6c-.5 0-.8-.1-1.1-.4-.3-.3-.4-.7-.4-1.1v-6.3c0-.7-.2-1.3-.7-1.6-.4-.3-.9-.5-1.5-.5s-1.1.2-1.5.5c-.4.3-.7.9-.7 1.6v.6c.1.1.1 7.3.1 7.3zm18.1-3.8h2.3c-.3 1.3-1 2.3-1.9 3-1 .7-2.2 1.1-3.6 1.1-1.8 0-3.1-.6-4.1-1.7-1-1.1-1.5-2.7-1.5-4.7s.5-3.5 1.4-4.6c1-1.1 2.4-1.7 4.1-1.7 1.8 0 3.3.6 4.3 1.7s1.5 2.7 1.5 4.8v.8h-8c0 1 .3 1.7.7 2.1.4.5 1 .7 1.8.7.5 0 1-.1 1.3-.3.1 0 .2-.1.3-.2l.3-.3c0-.1.1-.2.3-.4.2-.3.4-.3.8-.3zm-5.5-3.6h4.7c-.1-.8-.3-1.4-.6-1.8-.4-.4-1-.6-1.7-.6s-1.2.2-1.7.6c-.5.4-.7 1-.7 1.8zm9.7 7.4v-5.9c0-1.2.2-2.2.5-3 .4-.8.8-1.5 1.5-2 .6-.5 1.3-.8 2.1-1 .8-.2 1.6-.3 2.4-.3h.4v3.3h-1.1c-.9 0-1.6.2-2 .6-.4.4-.6 1.1-.6 2v6.3h-3.2zm16.9-3.8h2.3c-.3 1.3-1 2.3-1.9 3-1 .7-2.2 1.1-3.6 1.1-1.8 0-3.1-.6-4.1-1.7-1-1.1-1.5-2.7-1.5-4.7s.5-3.5 1.4-4.6c1-1.1 2.4-1.7 4.1-1.7 1.8 0 3.3.6 4.3 1.7.6.7 1 1.5 1.2 2.4h-3.2c-.2-.3-.3-.5-.5-.7-.4-.4-1-.6-1.7-.6s-1.2.2-1.7.6c-.6.6-.8 1.6-.8 3s.3 2.4.8 3c.4.5 1 .7 1.8.7.5 0 1-.1 1.3-.3.1 0 .2-.1.3-.2l.3-.3.4-.4c.2-.3.5-.3.8-.3zm12.6 0h2.3c-.3 1.3-1 2.3-1.9 3-1 .7-2.2 1.1-3.6 1.1-1.8 0-3.1-.6-4.1-1.7-1-1.1-1.5-2.7-1.5-4.7s.5-3.5 1.4-4.6c1-1.1 2.4-1.7 4.1-1.7 1.8 0 3.3.6 4.3 1.7s1.5 2.7 1.5 4.8v.8h-8c0 1 .3 1.7.7 2.1.4.5 1 .7 1.8.7.5 0 1-.1 1.3-.3.1 0 .2-.1.3-.2l.3-.3c0-.1.1-.2.3-.4.1-.3.4-.3.8-.3zm-5.6-3.6h4.7c-.1-.8-.3-1.4-.6-1.8-.4-.4-1-.6-1.7-.6s-1.2.2-1.7.6c-.4.4-.6 1-.7 1.8z" fill="#eceaec"/><path class="st1" d="M161.9 29.7V15.4c0-.5.2-.9.5-1.2.3-.3.7-.5 1.2-.5h1.6v12.9h7.8v2.9l-11.1.2zm20.6-.6c-.6.3-1.3.5-2.1.6-.7.1-1.4.1-1.9.1-1.1 0-2.1-.3-2.9-.9-.8-.6-1.2-1.6-1.2-3 0-1.3.4-2.2 1.1-2.8.8-.6 1.7-.9 2.9-1.1.2 0 .3 0 .6-.1.2 0 .5-.1.7-.1 1.4-.2 2-.6 2-1.2 0-.5-.2-.8-.7-.9-.5-.1-.9-.2-1.3-.2s-.8.1-1.2.2c-.3.1-.6.4-.7.7h-3.1c.1-1 .6-1.7 1.3-2.4.8-.7 2-1.1 3.6-1.1 1.7 0 3 .3 3.9.9.9.6 1.3 1.5 1.3 2.6v4.2c0 1.2-.2 2.2-.7 2.9-.5.8-1 1.3-1.6 1.6zm-.7-5.6c-.4.2-1 .4-1.8.6l-1.1.2c-.6.2-1 .4-1.2.6-.2.3-.3.7-.3 1 0 .5.1.8.4 1.1.3.2.7.4 1.2.4.9 0 1.5-.2 2-.7.5-.5.7-1.2.7-2l.1-1.2zm7.7-8.2V19c.3-.6.8-1.1 1.5-1.4.6-.3 1.2-.5 2-.5 1.4 0 2.6.6 3.6 1.8.9 1.2 1.4 2.8 1.4 4.7 0 1.9-.5 3.5-1.4 4.7-.5.6-1.1 1-1.9 1.3-.8.3-1.6.4-2.3.4-1.5 0-2.8-.4-4.1-1.2-1.3-.8-1.9-2.2-1.9-4.4V13.7h1.6c.4 0 .8.2 1.1.5.3.3.4.7.4 1.1zm5.3 8.1c0-1.1-.2-2-.7-2.6-.5-.6-1.1-1-1.9-1-.9 0-1.5.3-2 .9-.5.6-.7 1.5-.7 2.6 0 1.3.2 2.2.6 2.8.5.6 1.1 1 1.9 1 .9 0 1.5-.3 2-1 .6-.5.8-1.4.8-2.7z"/><path d="M34.8 31.3c-.1.2-.3.4-.5.5l-13.9 8c-.2.1-.5.2-.8.2s-.6-.1-.8-.2l-13.9-8c-.2-.1-.3-.3-.5-.5L.3 33.7c.1.2.3.4.5.5l18 10.4c.2.1.5.2.8.2.3 0 .6-.1.8-.2l18-10.4c.2-.1.3-.3.5-.5l-4.1-2.4z" fill="#8f908f"/><path d="M39 11.3c-.1-.3-.4-.6-.6-.7L20.4.2c-.2-.1-.5-.2-.8-.2s-.6.1-.8.2L.8 10.6c-.3.2-.5.4-.6.8-.1.1-.2.4-.2.6v20.8c0 .3.1.6.3.9l4.1-2.4c-.2-.3-.3-.6-.3-.9V14.3c0-.2.1-.4.2-.6.1-.3.4-.6.6-.7l14.7-8.5L34.3 13c.3.2.5.4.6.7.1.2.2.4.2.6v16.1c0 .3-.1.6-.3.9l4.1 2.4c.2-.3.3-.6.3-.9V12c0-.2-.1-.5-.2-.7z" fill="#f4f3f4"/><path class="st1" d="M26.7 27.4l-6.4 3.7c-.2.1-.5.2-.8.2s-.6-.1-.8-.2l-6.4-3.7c-.2-.1-.3-.3-.5-.5-.2-.3-.3-.6-.3-.9v-7.4c0-.2.1-.4.1-.6.1-.3.4-.6.6-.7l7.2-4.1 7.2 4.1c.3.1.5.4.6.7l2.7-1.6c-.1-.3-.4-.6-.6-.7l-9.1-5.3c-.2-.1-.5-.2-.8-.2-.3 0-.6.1-.8.2l-9.1 5.3c-.3.1-.5.4-.6.7-.1.2-.1.4-.1.6v10.5c0 .3.1.6.3.9.1.2.3.4.5.5l9.1 5.3c.2.1.5.2.8.2.3 0 .6-.1.8-.2l9.1-5.3c.2-.1.3-.3.5-.5l-2.7-1.6c-.1.3-.3.5-.5.6z"/></svg>